Coordinates
version=1
nRows=12
nColumns=33
inDegrees=yes

Units are S.I. units (second, meters, Newtons, ...)
Angles are in degrees.

endheader
time	ground_thorax_rot_x	ground_thorax_rot_y	ground_thorax_rot_z	ground_thorax_tx	ground_thorax_ty	ground_thorax_tz	clav_prot_r	clav_elev_r	scapula_abduction_r	scapula_elevation_r	scapula_upward_rot_r	scapula_winging_r	shoulder_elv_r	plane_of_elev_r	axial_rot_r	elbow_flexion_r	pro_sup_r	wrist_flex_r	wrist_dev_r	clav_prot_l	clav_elev_l	scapula_abduction_l	scapula_elevation_l	scapula_upward_rot_l	scapula_winging_l	shoulder_elv_l	plane_of_elev_l	axial_rot_l	elbow_flexion_l	pro_sup_l	wrist_flex_l	wrist_dev_l
      4.64000000	    -38.10925417	    -11.90899401	     18.94264347	   -147.99913617	    792.71282936	      4.20191970	      4.17264804	    -45.00000000	     39.34672992	    -45.00000000	    -23.40172827	   2422.68546111	  -1914.49253248	    149.09997381	   -115.48718027	   1450.85702223	     11.93493195	     17.61773840	     12.13920972	     18.06334317	     39.07601225	    -40.90346929	    -45.00000000	    -42.97543209	     79.31926309	     69.30703699	     26.80746089	    -27.25738408	   2529.50205122	      8.55997338	      9.41220667	    -18.12966775
      4.65000000	    -38.08524389	    -12.26928588	     19.16267023	   -144.34195729	    790.57491424	      4.24332696	      4.45970711	    -45.00000000	     39.30766492	    -45.00000000	    -23.67245775	   2422.92335982	  -1914.90697630	    149.07011794	   -115.03200125	   1450.74740845	     12.25891657	     17.52206793	     12.22301141	     17.64695816	     39.00255480	    -40.70043557	    -45.00000000	    -42.93035797	     79.12296778	     69.26547558	     26.83270667	    -27.81131116	   2529.54016328	      9.47588769	      9.54794088	    -18.11364317
      4.66000000	    -38.07136321	    -12.38073718	     19.35614407	   -140.70112370	    788.46792213	      4.28466533	      4.30564715	    -45.00000000	     39.23282582	    -45.00000000	    -23.71014423	   2423.17166738	  -1915.22309366	    149.27485747	   -114.67690616	   1450.61142275	     12.66383610	     17.44362849	     12.37221311	     17.95353083	     39.06659165	    -40.93818368	    -45.00000000	    -43.11811976	     78.92696668	     69.00819275	     26.91435615	    -27.94158217	   2529.38161102	     10.37334626	      9.54618901	    -18.07402442
      4.67000000	    -38.03122871	    -12.62896280	     19.36068184	   -137.08975427	    786.40499539	      4.32614854	      4.08073014	    -45.00000000	     39.18996279	    -45.00000000	    -23.27723054	   2423.42287027	  -1915.54603313	    149.38040693	   -114.23167428	   1450.57664082	     13.15441651	     17.39263067	     12.49037740	     18.31490637	     39.18075089	    -41.10842040	    -45.00000000	    -43.26817889	     78.64844207	     68.71122230	     26.80668885	    -27.91337743	   2529.16921049	     11.31349725	      9.57116369	    -18.03980473
      4.68000000	    -38.02008473	    -12.65447126	     19.66807589	   -133.51888271	    784.40105965	      4.36799708	      3.89474002	    -45.00000000	     39.23656845	    -45.00000000	    -23.35934896	   2423.62302603	  -1915.82844253	    149.73266484	   -113.82185315	   1450.41992593	     13.72779849	     17.32198541	     12.66317733	     18.60381286	     39.23586745	    -41.15089181	    -45.00000000	    -43.21624418	     78.25246119	     68.61409736	     26.85442459	    -28.04780069	   2529.09839927	     12.28516441	      9.57677835	    -18.03999916
      4.69000000	    -38.11468759	    -12.25444396	     19.25761931	   -129.99033037	    782.46814578	      4.41027667	      3.41269073	    -45.00000000	     39.43196817	    -45.00000000	    -22.11294196	   2423.64438839	  -1916.31901299	    149.99677757	   -113.24735001	   1450.24941195	     14.59239934	     17.23163609	     12.77121353	     19.18957508	     39.42308219	    -41.41960042	    -45.00000000	    -42.82270598	     77.43646815	     68.72433420	     26.45203786	    -27.48852718	   2529.04623628	     13.42831495	      9.81753309	    -18.08967083
      4.70000000	    -37.96277077	    -13.09513124	     20.13705316	   -126.50927304	    780.62389442	      4.45278222	      4.43288931	    -45.00000000	     39.22775764	    -45.00000000	    -23.33065601	   2423.73030552	  -1916.76981437	    149.87571806	   -112.47023900	   1450.09892487	     15.14887986	     17.19512368	     12.57378405	     17.88744493	     39.09679746	    -41.08558193	    -45.00000000	    -43.46836269	     77.44896739	     68.72153174	     26.66375538	    -28.57363635	   2528.95192052	     14.26477709	      9.83794101	    -18.06822907
      4.71000000	    -37.85098385	    -13.40403545	     20.51613209	   -123.08042965	    778.88223774	      4.49442548	      4.42322513	    -45.00000000	     39.02115867	    -45.00000000	    -23.73360996	   2424.01622770	  -1917.04205352	    149.95865249	   -112.04906764	   1449.88341354	     15.74689276	     17.11172305	     12.57419367	     17.83300978	     38.94889381	    -40.89942748	    -45.00000000	    -43.33567537	     76.98917565	     68.57565762	     26.47753103	    -29.19856293	   2528.69316096	     15.01797068	      9.93773681	    -18.02800342
      4.72000000	    -37.81149173	    -12.75508325	     19.80869698	   -119.70212461	    777.25204234	      4.53378140	      3.46199601	    -45.00000000	     39.52775035	    -45.00000000	    -22.29542137	   2424.30093720	  -1916.93470550	    150.35673529	   -111.93646337	   1449.98768465	     16.68499026	     17.19590546	     12.70663578	     19.29654624	     39.22756439	    -41.81327657	    -44.47742980	    -42.94257923	     77.39713816	     67.80685482	     26.61776942	    -28.87921328	   2528.49343457	     15.84761803	      9.67841727	    -18.01611837
      4.73000000	    -37.89043699	    -11.14729716	     17.96945272	   -116.38330550	    775.74642227	      4.57011875	      2.69035867	    -45.00000000	     40.83643140	    -45.00000000	    -18.31553352	   2423.72284393	  -1917.41188091	    150.66827430	   -111.49726142	   1449.86658178	     18.38184985	     17.17804419	     12.66688233	     19.84810571	     38.98268407	    -42.48435392	    -43.30741870	    -40.65683545	     77.33887519	     68.03610321	     25.94108662	    -28.84866576	   2528.57153717	     17.18112436	      9.99597547	    -18.16482352
      4.74000000	    -37.60538908	    -11.84246244	     18.66152585	   -113.14454258	    774.37625232	      4.60381344	      3.48436866	    -45.00000000	     41.10130805	    -45.00000000	    -19.11447584	   2423.86007630	  -1917.44895159	    150.68403622	   -110.54998729	   1449.75587413	     19.30391292	     17.22113989	     12.44811672	     19.04228568	     38.65383196	    -42.21440283	    -43.02018506	    -40.92089846	     77.85572049	     67.45473278	     26.54396726	    -30.26329915	   2528.32234321	     17.94533117	      9.60001742	    -18.06602738
      4.75000000	    -37.75639001	     -8.47448908	     14.26191484	   -109.95504528	    773.12327406	      4.63575861	      2.76212204	    -45.00000000	     45.00000000	    -45.00000000	     -9.44191602	   2421.76918316	  -1918.09852314	    151.19364817	   -109.82914862	   1449.86301211	     22.30122064	     17.38654016	     12.16833861	     18.82367393	     38.95227977	    -43.78566359	    -41.04022885	    -35.93890956	     78.90367218	     66.91492606	     25.79116233	    -30.25500676	   2528.20582835	     19.61449468	      9.72266864	    -18.16569319
